<svg xmlns="http://www.w3.org/2000/svg" version="1.1" width="128px" height="128px" style="shape-rendering:geometricPrecision; text-rendering:geometricPrecision; image-rendering:optimizeQuality; fill-rule:evenodd; clip-rule:evenodd" xmlns:xlink="http://www.w3.org/1999/xlink" viewBox="0 0 128px 128px">
  <g>
    <path style="opacity:0.979" fill="white" d="M5.625 -0.125h3.75a26.524 26.524 0 0 1 3 1.625 14973.807 14973.807 0 0 0 51.5 51.375A14973.807 14973.807 0 0 0 115.375 1.5a26.528 26.528 0 0 1 3 -1.625h3.75c3 0.833 4.917 2.75 5.75 5.75v3.75a26.505 26.505 0 0 1 -1.625 3 14980.559 14980.559 0 0 0 -51.375 51.5 14980.559 14980.559 0 0 0 51.375 51.5 26.509 26.509 0 0 1 1.625 3v3.75c-0.833 3 -2.75 4.917 -5.75 5.75h-3.75a26.509 26.509 0 0 1 -3 -1.625 14980.559 14980.559 0 0 0 -51.5 -51.375A14980.559 14980.559 0 0 0 12.375 126.25a26.505 26.505 0 0 1 -3 1.625h-3.75c-3 -0.833 -4.917 -2.75 -5.75 -5.75v-3.75a26.528 26.528 0 0 1 1.625 -3 14973.807 14973.807 0 0 0 51.375 -51.5A14973.807 14973.807 0 0 0 1.5 12.375a26.524 26.524 0 0 1 -1.625 -3v-3.75c0.833 -3 2.75 -4.917 5.75 -5.75Z"/>
  </g>
</svg>
