<svg xmlns="http://www.w3.org/2000/svg" viewBox="0 0 128 97.012" width="128" height="97.012">
  <g id="Discord_Logos" data-name="Discord Logos">
    <g id="Discord_Logo_-_Large_-_White" data-name="Discord Logo - Large - White">
      <path fill="white" d="M108.429 8.125A105.861 105.861 0 0 0 82.021 0a72.547 72.547 0 0 0 -3.383 6.876 98.341 98.341 0 0 0 -29.307 0A72.86 72.86 0 0 0 45.949 0a106.606 106.606 0 0 0 -26.428 8.145C2.809 32.871 -1.722 56.983 0.544 80.753a106.445 106.445 0 0 0 32.388 16.259 78.226 78.226 0 0 0 6.937 -11.185 68.883 68.883 0 0 1 -10.923 -5.215c0.916 -0.664 1.812 -1.349 2.678 -2.014a76.081 76.081 0 0 0 64.755 0c0.876 0.715 1.772 1.399 2.678 2.014a69.145 69.145 0 0 1 -10.944 5.225 77.521 77.521 0 0 0 6.937 11.175 105.962 105.962 0 0 0 32.408 -16.249c2.658 -27.565 -4.541 -51.456 -19.028 -72.638ZM42.737 66.134C36.425 66.134 31.21 60.406 31.21 53.359s5.034 -12.826 11.507 -12.826S54.365 46.311 54.255 53.359s-5.084 12.776 -11.517 12.776Zm42.526 0C78.94 66.134 73.745 60.406 73.745 53.359s5.034 -12.826 11.517 -12.826S96.881 46.311 96.77 53.359s-5.074 12.776 -11.507 12.776Z"/>
    </g>
  </g>
</svg>
