<svg xmlns="http://www.w3.org/2000/svg" version="1.1" width="128px" height="128px" style="shape-rendering:geometricPrecision; text-rendering:geometricPrecision; image-rendering:optimizeQuality; fill-rule:evenodd; clip-rule:evenodd" xmlns:xlink="http://www.w3.org/1999/xlink" viewBox="0 0 128px 128px">
  <g>
    <path style="opacity:0.954" fill="white" d="M127.875 15.625v5.5c-0.71 2.918 -2.085 5.502 -4.125 7.75L67.125 85.5a5.643 5.643 0 0 1 -2 1A6887.813 6887.813 0 0 1 37.5 94.125c-1.958 -0.292 -3.083 -1.417 -3.375 -3.375A6272.86 6272.86 0 0 0 41.5 63.875c0.225 -1.01 0.641 -1.926 1.25 -2.75A9514.926 9514.926 0 0 1 100.875 3.25c6.13 -4.127 12.213 -4.043 18.25 0.25 2.83 2.495 5.289 5.287 7.375 8.375a107.479 107.479 0 0 1 1.375 3.75Zm-19.5 -8.75c1.95 -0.179 3.783 0.196 5.5 1.125 2.645 2.144 4.936 4.603 6.875 7.375 1.123 3.257 0.54 6.174 -1.75 8.75a52.985 52.985 0 0 1 -3.125 3c-5 -4.833 -9.917 -9.75 -14.75 -14.75 1.948 -2.509 4.365 -4.342 7.25 -5.5Zm-12.25 10.25a1259.964 1259.964 0 0 1 15 14.875L64.75 78.375 49.875 63.5a12123.672 12123.672 0 0 0 46.25 -46.375Zm-49.5 52.75a373.916 373.916 0 0 1 11.5 11.5c-5.228 1.702 -10.478 3.119 -15.75 4.25a366.141 366.141 0 0 0 4.25 -15.75Z"/>
  </g>
  <g>
    <path style="opacity:0.956" fill="white" d="M107.125 127.875h-93c-7.558 -1.391 -12.308 -5.808 -14.25 -13.25v-88.75c1.651 -6.693 5.817 -10.985 12.5 -12.875 10.825 -0.408 21.659 -0.492 32.5 -0.25 2.306 0.906 3.015 2.531 2.125 4.875 -0.616 0.948 -1.491 1.489 -2.625 1.625l-30.5 0.25C9.756 20.703 7.298 23.411 6.5 27.625a7267.262 7267.262 0 0 0 0 85.25c0.792 4.21 3.251 6.918 7.375 8.125 31.083 0.167 62.167 0.167 93.25 0 3.956 -0.956 6.415 -3.414 7.375 -7.375l0.25 -30.75c0.962 -2.544 2.67 -3.252 5.125 -2.125 0.651 0.484 1.11 1.109 1.375 1.875 0.24 10.841 0.157 21.674 -0.25 32.5 -1.988 7.137 -6.614 11.387 -13.875 12.75Z"/>
  </g>
</svg>
