<svg height="64px" width="64px" version="1.1" id="Capa_1" xmlns="http://www.w3.org/2000/svg" xmlns:xlink="http://www.w3.org/1999/xlink" viewBox="0 0 1.889 1.889" xml:space="preserve">
  <g>
    <g>
      <g>
        <path style="fill:#ffffff" d="M1.296 0.418V0.359H0.594v0.059s0.106 0.297 0.307 0.434v0.143s-0.221 0.215 -0.307 0.462v0.068h0.702v-0.068c-0.112 -0.273 -0.307 -0.462 -0.307 -0.462v-0.143c0.273 -0.234 0.307 -0.434 0.307 -0.434z"/>
      </g>
      <g>
        <path style="fill:#ffffff" d="M1.548 0.308V0.203h0.101V0H0.24v0.203h0.101v0.106c0 0.162 0.29 0.605 0.304 0.636 -0.013 0.032 -0.304 0.474 -0.304 0.635v0.106H0.24v0.203h1.409v-0.203h-0.101v-0.106c0 -0.162 -0.291 -0.602 -0.306 -0.636 0.015 -0.035 0.306 -0.474 0.306 -0.636zm-0.101 1.272v0.106H0.442v-0.106c0 -0.117 0.308 -0.578 0.308 -0.636S0.442 0.425 0.442 0.308V0.203h1.006v0.106c0 0.117 -0.311 0.578 -0.311 0.636 0 0.059 0.311 0.519 0.311 0.636z"/>
      </g>
    </g>
  </g>
</svg>
