<svg xmlns="http://www.w3.org/2000/svg" viewBox="0 0 128 128" fill="#FCE09B" class="w-6 h-6" width="128" height="128">
  <path d="M64 12a4 4 0 0 1 4 4v12a4 4 0 0 1 -8 0V16a4 4 0 0 1 4 -4zM40 64a24 24 0 1 1 48 0 24 24 0 0 1 -48 0zm60.768 -31.115a4 4 0 0 0 -5.653 -5.653l-8.485 8.48a4 4 0 1 0 5.653 5.659l8.485 -8.48zM116 64a4 4 0 0 1 -4 4h-12a4 4 0 0 1 0 -8H112a4 4 0 0 1 4 4zm-20.885 36.768a4 4 0 0 0 5.653 -5.653l-8.48 -8.485a4 4 0 1 0 -5.659 5.653l8.48 8.485zM64 96a4 4 0 0 1 4 4V112a4 4 0 0 1 -8 0v-12A4 4 0 0 1 64 96zm-22.624 -3.717a4 4 0 0 0 -5.659 -5.653l-8.485 8.48a4 4 0 0 0 5.653 5.659l8.485 -8.48zM32 64a4 4 0 0 1 -4 4H16a4 4 0 0 1 0 -8h12A4 4 0 0 1 32 64zm3.717 -22.629a4 4 0 0 0 5.653 -5.653l-8.48 -8.485a4 4 0 0 0 -5.659 5.653l8.48 8.485z"/>
</svg>
